<svg id="visual" viewBox="0 0 900 600" width="900" height="600" xmlns="http://www.w3.org/2000/svg" xmlns:xlink="http://www.w3.org/1999/xlink" version="1.1"><rect x="0" y="0" width="900" height="600" fill="#001220"></rect><defs><linearGradient id="grad1_0" x1="33.3%" y1="0%" x2="100%" y2="100%"><stop offset="20%" stop-color="#001220" stop-opacity="1"></stop><stop offset="80%" stop-color="#001220" stop-opacity="1"></stop></linearGradient></defs><defs><linearGradient id="grad2_0" x1="0%" y1="0%" x2="66.7%" y2="100%"><stop offset="20%" stop-color="#001220" stop-opacity="1"></stop><stop offset="80%" stop-color="#001220" stop-opacity="1"></stop></linearGradient></defs><g transform="translate(900, 0)"><path d="M0 459.7C-52.1 436.9 -104.3 414 -164.2 396.3C-224.1 378.7 -291.7 366.2 -325.1 325.1C-358.4 283.9 -357.4 214 -374.2 155C-390.9 96 -425.3 48 -459.7 0L0 0Z" fill="#916de1"></path></g><g transform="translate(0, 600)"><path d="M0 -459.7C49.5 -430 98.9 -400.3 158.8 -383.4C218.7 -366.5 289 -362.4 325.1 -325.1C361.1 -287.7 363 -217 379.7 -157.3C396.5 -97.6 428.1 -48.8 459.7 0L0 0Z" fill="#916de1"></path></g></svg>