<svg id="visual" viewBox="0 0 900 600" width="900" height="600" xmlns="http://www.w3.org/2000/svg" xmlns:xlink="http://www.w3.org/1999/xlink" version="1.1"><g stroke-width="1" stroke-linejoin="bevel"><path d="M478 283L395 306L489 373Z" fill="#4d3670" stroke="#4d3670"></path><path d="M395 306L372 423L489 373Z" fill="#413469" stroke="#413469"></path><path d="M602 432L585 332L489 373Z" fill="#041625" stroke="#041625"></path><path d="M489 373L585 332L478 283Z" fill="#413469" stroke="#413469"></path><path d="M372 423L463 483L489 373Z" fill="#353162" stroke="#353162"></path><path d="M479 166L417 180L478 283Z" fill="#061a2e" stroke="#061a2e"></path><path d="M478 283L417 180L395 306Z" fill="#172749" stroke="#172749"></path><path d="M395 306L316 421L372 423Z" fill="#0a1f37" stroke="#0a1f37"></path><path d="M278 323L316 421L395 306Z" fill="#202b52" stroke="#202b52"></path><path d="M372 423L384 536L463 483Z" fill="#4d3670" stroke="#4d3670"></path><path d="M292 201L278 323L395 306Z" fill="#2a2e5a" stroke="#2a2e5a"></path><path d="M601 202L479 166L478 283Z" fill="#172749" stroke="#172749"></path><path d="M561 506L602 432L489 373Z" fill="#041625" stroke="#041625"></path><path d="M683 336L601 202L585 332Z" fill="#353162" stroke="#353162"></path><path d="M585 332L601 202L478 283Z" fill="#202b52" stroke="#202b52"></path><path d="M399 122L292 201L417 180Z" fill="#102340" stroke="#102340"></path><path d="M417 180L292 201L395 306Z" fill="#413469" stroke="#413469"></path><path d="M463 483L561 506L489 373Z" fill="#172749" stroke="#172749"></path><path d="M278 323L238 360L316 421Z" fill="#353162" stroke="#353162"></path><path d="M160 319L238 360L278 323Z" fill="#353162" stroke="#353162"></path><path d="M238 360L293 477L316 421Z" fill="#353162" stroke="#353162"></path><path d="M316 421L293 477L372 423Z" fill="#041625" stroke="#041625"></path><path d="M463 483L526 600L561 506Z" fill="#4d3670" stroke="#4d3670"></path><path d="M293 477L384 536L372 423Z" fill="#061a2e" stroke="#061a2e"></path><path d="M479 166L399 122L417 180Z" fill="#4d3670" stroke="#4d3670"></path><path d="M478 111L399 122L479 166Z" fill="#2a2e5a" stroke="#2a2e5a"></path><path d="M586 79L478 111L479 166Z" fill="#172749" stroke="#172749"></path><path d="M738 389L683 336L602 432Z" fill="#0a1f37" stroke="#0a1f37"></path><path d="M602 432L683 336L585 332Z" fill="#413469" stroke="#413469"></path><path d="M269 600L415 600L384 536Z" fill="#4d3670" stroke="#4d3670"></path><path d="M384 536L415 600L463 483Z" fill="#00101c" stroke="#00101c"></path><path d="M415 600L526 600L463 483Z" fill="#4d3670" stroke="#4d3670"></path><path d="M721 476L738 389L602 432Z" fill="#202b52" stroke="#202b52"></path><path d="M320 0L286 95L399 122Z" fill="#353162" stroke="#353162"></path><path d="M399 122L286 95L292 201Z" fill="#2a2e5a" stroke="#2a2e5a"></path><path d="M292 201L160 319L278 323Z" fill="#0a1f37" stroke="#0a1f37"></path><path d="M165 165L160 319L292 201Z" fill="#4d3670" stroke="#4d3670"></path><path d="M238 360L177 509L293 477Z" fill="#00101c" stroke="#00101c"></path><path d="M661 120L586 79L601 202Z" fill="#2a2e5a" stroke="#2a2e5a"></path><path d="M601 202L586 79L479 166Z" fill="#102340" stroke="#102340"></path><path d="M478 111L405 0L399 122Z" fill="#202b52" stroke="#202b52"></path><path d="M683 336L699 190L601 202Z" fill="#2a2e5a" stroke="#2a2e5a"></path><path d="M721 476L602 432L561 506Z" fill="#0a1f37" stroke="#0a1f37"></path><path d="M683 336L799 280L699 190Z" fill="#353162" stroke="#353162"></path><path d="M699 190L661 120L601 202Z" fill="#4d3670" stroke="#4d3670"></path><path d="M635 600L721 476L561 506Z" fill="#102340" stroke="#102340"></path><path d="M226 600L269 600L293 477Z" fill="#172749" stroke="#172749"></path><path d="M293 477L269 600L384 536Z" fill="#061a2e" stroke="#061a2e"></path><path d="M104 370L177 509L238 360Z" fill="#041625" stroke="#041625"></path><path d="M526 600L635 600L561 506Z" fill="#041625" stroke="#041625"></path><path d="M286 95L165 165L292 201Z" fill="#4d3670" stroke="#4d3670"></path><path d="M165 165L118 281L160 319Z" fill="#2a2e5a" stroke="#2a2e5a"></path><path d="M160 319L104 370L238 360Z" fill="#4d3670" stroke="#4d3670"></path><path d="M517 0L405 0L478 111Z" fill="#102340" stroke="#102340"></path><path d="M286 95L161 83L165 165Z" fill="#0a1f37" stroke="#0a1f37"></path><path d="M580 0L517 0L586 79Z" fill="#202b52" stroke="#202b52"></path><path d="M586 79L517 0L478 111Z" fill="#413469" stroke="#413469"></path><path d="M635 600L662 600L721 476Z" fill="#2a2e5a" stroke="#2a2e5a"></path><path d="M118 281L104 370L160 319Z" fill="#202b52" stroke="#202b52"></path><path d="M177 509L226 600L293 477Z" fill="#061a2e" stroke="#061a2e"></path><path d="M818 390L799 280L738 389Z" fill="#00101c" stroke="#00101c"></path><path d="M738 389L799 280L683 336Z" fill="#353162" stroke="#353162"></path><path d="M699 190L782 139L661 120Z" fill="#2a2e5a" stroke="#2a2e5a"></path><path d="M405 0L320 0L399 122Z" fill="#102340" stroke="#102340"></path><path d="M705 0L580 0L586 79Z" fill="#00101c" stroke="#00101c"></path><path d="M705 0L586 79L661 120Z" fill="#353162" stroke="#353162"></path><path d="M799 280L780 181L699 190Z" fill="#0a1f37" stroke="#0a1f37"></path><path d="M165 165L93 228L118 281Z" fill="#041625" stroke="#041625"></path><path d="M118 281L0 304L104 370Z" fill="#041625" stroke="#041625"></path><path d="M83 73L93 228L165 165Z" fill="#00101c" stroke="#00101c"></path><path d="M721 476L818 390L738 389Z" fill="#2a2e5a" stroke="#2a2e5a"></path><path d="M787 521L818 390L721 476Z" fill="#353162" stroke="#353162"></path><path d="M188 0L161 83L286 95Z" fill="#061a2e" stroke="#061a2e"></path><path d="M900 117L782 139L780 181Z" fill="#413469" stroke="#413469"></path><path d="M780 181L782 139L699 190Z" fill="#041625" stroke="#041625"></path><path d="M900 212L780 181L799 280Z" fill="#413469" stroke="#413469"></path><path d="M662 600L787 521L721 476Z" fill="#172749" stroke="#172749"></path><path d="M104 370L71 516L177 509Z" fill="#00101c" stroke="#00101c"></path><path d="M177 509L106 600L226 600Z" fill="#202b52" stroke="#202b52"></path><path d="M0 401L71 516L104 370Z" fill="#353162" stroke="#353162"></path><path d="M782 139L705 0L661 120Z" fill="#00101c" stroke="#00101c"></path><path d="M320 0L188 0L286 95Z" fill="#102340" stroke="#102340"></path><path d="M161 83L83 73L165 165Z" fill="#413469" stroke="#413469"></path><path d="M71 516L106 600L177 509Z" fill="#4d3670" stroke="#4d3670"></path><path d="M71 0L83 73L161 83Z" fill="#172749" stroke="#172749"></path><path d="M93 228L0 304L118 281Z" fill="#202b52" stroke="#202b52"></path><path d="M0 184L0 304L93 228Z" fill="#0a1f37" stroke="#0a1f37"></path><path d="M0 304L0 401L104 370Z" fill="#00101c" stroke="#00101c"></path><path d="M71 516L0 600L106 600Z" fill="#102340" stroke="#102340"></path><path d="M900 405L900 323L818 390Z" fill="#353162" stroke="#353162"></path><path d="M818 390L900 323L799 280Z" fill="#202b52" stroke="#202b52"></path><path d="M782 139L838 0L705 0Z" fill="#4d3670" stroke="#4d3670"></path><path d="M900 525L900 405L818 390Z" fill="#041625" stroke="#041625"></path><path d="M900 323L900 212L799 280Z" fill="#202b52" stroke="#202b52"></path><path d="M662 600L833 600L787 521Z" fill="#041625" stroke="#041625"></path><path d="M787 521L900 525L818 390Z" fill="#172749" stroke="#172749"></path><path d="M83 73L0 184L93 228Z" fill="#413469" stroke="#413469"></path><path d="M0 401L0 491L71 516Z" fill="#413469" stroke="#413469"></path><path d="M833 600L900 525L787 521Z" fill="#00101c" stroke="#00101c"></path><path d="M900 212L900 117L780 181Z" fill="#172749" stroke="#172749"></path><path d="M188 0L71 0L161 83Z" fill="#2a2e5a" stroke="#2a2e5a"></path><path d="M83 73L0 74L0 184Z" fill="#00101c" stroke="#00101c"></path><path d="M900 117L838 0L782 139Z" fill="#102340" stroke="#102340"></path><path d="M71 0L0 74L83 73Z" fill="#172749" stroke="#172749"></path><path d="M0 491L0 600L71 516Z" fill="#202b52" stroke="#202b52"></path><path d="M833 600L900 600L900 525Z" fill="#202b52" stroke="#202b52"></path><path d="M71 0L0 0L0 74Z" fill="#102340" stroke="#102340"></path><path d="M900 117L900 0L838 0Z" fill="#4d3670" stroke="#4d3670"></path></g></svg>